<svg width="20" height="23" viewBox="0 0 20 23" fill="none" xmlns="http://www.w3.org/2000/svg">
<path d="M2.22222 22.2222C1.61111 22.2222 1.08796 22.0046 0.652778 21.5694C0.217593 21.1343 0 20.6111 0 20V4.44444C0 3.83333 0.217593 3.31019 0.652778 2.875C1.08796 2.43981 1.61111 2.22222 2.22222 2.22222H6.88889C7.12963 1.55556 7.53241 1.01852 8.09722 0.611111C8.66204 0.203704 9.2963 0 10 0C10.7037 0 11.338 0.203704 11.9028 0.611111C12.4676 1.01852 12.8704 1.55556 13.1111 2.22222H17.7778C18.3889 2.22222 18.912 2.43981 19.3472 2.875C19.7824 3.31019 20 3.83333 20 4.44444V20C20 20.6111 19.7824 21.1343 19.3472 21.5694C18.912 22.0046 18.3889 22.2222 17.7778 22.2222H2.22222ZM4.44444 17.7778H12.2222V15.5556H4.44444V17.7778ZM4.44444 13.3333H15.5556V11.1111H4.44444V13.3333ZM4.44444 8.88889H15.5556V6.66667H4.44444V8.88889ZM10 3.61111C10.2407 3.61111 10.4398 3.53241 10.5972 3.375C10.7546 3.21759 10.8333 3.01852 10.8333 2.77778C10.8333 2.53704 10.7546 2.33796 10.5972 2.18056C10.4398 2.02315 10.2407 1.94444 10 1.94444C9.75926 1.94444 9.56019 2.02315 9.40278 2.18056C9.24537 2.33796 9.16667 2.53704 9.16667 2.77778C9.16667 3.01852 9.24537 3.21759 9.40278 3.375C9.56019 3.53241 9.75926 3.61111 10 3.61111Z" fill="white"/>
</svg>
